<?xml version="1.0" standalone="no"?>
<!DOCTYPE svg PUBLIC "-//W3C//DTD SVG 20010904//EN"
 "http://www.w3.org/TR/2001/REC-SVG-20010904/DTD/svg10.dtd">
<svg version="1.0" xmlns="http://www.w3.org/2000/svg"
 width="1024.000000pt" height="1024.000000pt" viewBox="0 0 1024.000000 1024.000000"
 preserveAspectRatio="xMidYMid meet">

<g transform="translate(0.000000,1024.000000) scale(0.100000,-0.100000)"
fill="#000000" stroke="none">
<path d="M5032 8749 c-174 -20 -419 -92 -562 -164 -109 -55 -266 -149 -340
-204 -93 -68 -386 -359 -469 -464 l-61 -78 0 -113 c0 -74 -5 -131 -16 -166
-18 -62 -120 -269 -172 -350 -29 -46 -36 -69 -44 -140 -9 -88 -4 -252 13 -400
11 -93 78 -373 110 -460 72 -194 251 -469 412 -632 117 -119 361 -295 557
-401 308 -166 774 -236 1150 -172 115 20 357 99 487 160 145 68 395 238 495
338 283 281 434 538 528 899 22 83 40 157 40 165 0 9 -16 37 -35 63 -41 56
-96 181 -118 270 -45 181 -48 523 -7 685 l23 90 -54 83 c-162 251 -385 504
-549 624 -194 142 -463 276 -636 317 -214 50 -553 73 -752 50z m418 -319 c154
-19 387 -87 510 -149 149 -74 358 -234 457 -348 324 -375 468 -870 387 -1329
-64 -365 -241 -707 -472 -911 -139 -124 -314 -231 -502 -308 -79 -32 -282 -79
-410 -95 -158 -20 -379 7 -614 75 -231 67 -464 219 -676 441 -104 109 -174
209 -245 353 -94 188 -135 337 -156 566 -25 276 20 535 137 798 90 201 183
335 330 477 159 153 339 272 509 335 66 25 314 89 380 98 63 9 284 7 365 -3z"/>
<path d="M5115 8070 c-67 -14 -210 -57 -262 -80 -122 -54 -316 -193 -419 -301
-157 -166 -274 -395 -326 -638 -29 -141 -21 -332 21 -489 82 -303 238 -526
487 -692 204 -137 387 -199 615 -207 174 -7 272 7 423 58 175 60 280 117 404
217 73 60 240 289 287 395 55 124 94 263 106 372 43 400 -84 764 -366 1048
-153 155 -398 284 -598 317 -72 11 -314 11 -372 0z m407 -279 c268 -91 466
-260 583 -496 72 -146 88 -221 89 -415 0 -154 -2 -173 -32 -285 -18 -66 -48
-152 -67 -191 -144 -296 -449 -484 -785 -484 -312 0 -563 116 -756 348 -66 80
-145 236 -176 347 -30 110 -32 346 -4 450 26 100 67 197 121 294 56 98 197
247 290 306 244 155 517 202 737 126z"/>
<path d="M8015 8656 c-133 -42 -269 -147 -410 -316 -251 -301 -391 -726 -371
-1127 12 -262 77 -450 209 -604 140 -163 271 -205 593 -188 87 4 166 8 174 9
13 0 15 125 12 1072 -1 759 -5 1081 -13 1100 -24 60 -105 82 -194 54z"/>
<path d="M2214 8640 c-11 -4 -32 -22 -46 -38 l-25 -30 -6 -308 c-14 -646 -9
-729 53 -859 38 -80 170 -217 247 -258 125 -66 349 -90 465 -49 189 67 342
262 391 498 11 56 13 156 9 524 l-4 455 -26 28 c-14 15 -43 32 -65 38 -33 9
-45 7 -84 -12 -85 -41 -83 -31 -83 -466 l0 -382 -30 -16 c-37 -19 -120 -20
-146 -1 -18 14 -19 33 -24 421 l-5 407 -30 24 c-43 35 -87 40 -132 17 -76 -40
-73 -22 -80 -465 l-6 -396 -24 -11 c-13 -6 -46 -11 -74 -11 -40 0 -55 5 -74
25 l-25 24 0 380 0 379 -26 32 c-45 53 -98 71 -150 50z"/>
<path d="M2955 6848 c-120 -27 -395 -30 -499 -4 -38 9 -71 14 -75 11 -6 -6 -2
-1066 8 -2100 6 -648 6 -650 29 -699 35 -77 89 -136 151 -165 48 -22 69 -26
151 -26 88 0 101 3 162 33 76 37 124 88 162 173 48 105 49 128 42 1097 -4 701
-19 1679 -25 1700 -1 3 -8 2 -106 -20z"/>
<path d="M7518 5304 c-2 -478 -3 -937 -3 -1019 0 -150 0 -151 33 -217 84 -171
266 -246 454 -188 86 26 147 80 190 168 l33 67 -2 990 c-2 544 -3 1002 -3
1017 l0 28 -207 -6 c-190 -6 -367 3 -460 22 l-33 7 -2 -869z"/>
<path d="M7015 5572 c-11 -9 -61 -64 -110 -122 -124 -145 -275 -300 -371 -380
-193 -163 -544 -320 -874 -394 -397 -88 -867 -3 -1369 248 -207 104 -314 188
-567 444 l-211 214 -76 -80 c-77 -81 -94 -113 -83 -156 6 -25 78 -124 156
-215 65 -75 280 -259 392 -334 223 -149 643 -326 928 -391 135 -31 425 -66
547 -66 430 0 980 198 1328 478 150 121 232 209 483 517 l44 53 -17 32 c-23
44 -92 118 -137 146 -44 28 -38 28 -63 6z"/>
</g>
</svg>
